<svg xmlns="http://www.w3.org/2000/svg" version="1.1" viewBox="0 0 612 80"><path fill="#333" d="M.15 32.21v31.9h21.17V44.17l2.45-2.45 2.15-2.15 7.36 12.27 7.36 12.28h25.77L54.14 43.87 41.26 24.54 52.9 12.27 64.57 0H38.8l-8.59 9.82-8.59 9.5V9.52L21.32 0H.15v32.21zm75.77-15.03A24.54 24.54 0 0 0 61.5 30.06c-1.53 3.07-1.84 4.6-1.84 10.74 0 6.14.3 7.98 1.84 11.04 4.3 9.51 14.42 14.42 27.61 13.5 13.5-.92 21.48-7.98 23.32-20.55 1.53-12.27-3.07-21.48-13.5-26.38-3.07-1.54-4.91-1.85-11.97-1.85-5.52 0-9.2 0-11.04.62zm12.89 12.58c3.06 1.22 4.6 5.82 4.6 11.04 0 7.98-2.15 11.35-7.06 11.35s-7.97-4.3-7.97-11.96c0-5.52 3.98-11.05 7.66-11.35l2.77.92zm162.58-12.28c-11.04 3.07-17.48 13.5-16.87 25.47a22.4 22.4 0 0 0 14.72 20.86c5.53 2.14 19.02 2.14 24.85 0 4.91-2.15 9.2-5.83 11.35-9.51 2.46-4.91 2.46-4.91-7.36-4.91h-8.9l-2.14 2.15c-2.15 2.14-2.46 2.14-5.52 1.84a9 9 0 0 1-7.67-6.14l-.31-2.15h34.97v34.67h19.02V60.43l1.84 1.54c3.68 3.68 10.43 4.6 17.18 2.45 7.36-2.15 14.11-11.04 14.42-19.02v-2.76l.61 3.07c2.76 13.8 13.5 20.86 29.76 19.63 11.96-.61 19.02-5.83 21.78-14.72l1.23-3.69v4.6c0 4.91.6 6.14 3.98 9.82 5.22 5.52 19.02 5.83 27.3.61l2.46-1.84.61 2.15.31 1.84h9.82l10.12-.3-1.23-1.85c-1.23-1.22-1.53-3.68-1.84-18.4-.3-20.56-.61-21.48-7.36-24.85-3.99-2.15-4.6-2.15-14.11-2.45a52.15 52.15 0 0 0-14.42.92c-7.98 2.14-12.58 6.74-12.58 12.57v2.76h9.2c8.9 0 8.9 0 9.2-1.84 1.24-4.3 11.97-3.68 11.05.92-.3 1.84-3.07 3.07-11.96 4-9.82 1.53-14.73 3.06-17.49 6.13-1.23 1.53-2.14 3.06-2.14 3.68 0 .61-2.77.61-10.13.61h-10.43l-.3 1.54c-.62 3.06-3.07 4.6-6.14 4.6-4.9 0-7.67-3.68-7.67-11.35 0-2.15.3-5.22.92-6.45 1.23-2.76 4.3-5.52 6.14-5.52 2.76 0 5.52 2.15 6.13 4.6l1.23 2.46h19.02l-.61-3.07c-.93-6.13-5.22-11.35-11.66-14.42-7.36-3.37-22.4-3.06-28.84 1.23a23.62 23.62 0 0 0-10.73 14.42l-1.23 4.3-.3-3.69c-1.24-11.04-9.21-18.4-19.64-18.4-5.52 0-8.59.92-12.27 3.68l-2.46 2.15v-5.22h-17.79v12.88c0 10.13 0 12.28-.61 8.9-1.54-9.2-7.06-17.18-14.73-20.55-4.3-1.84-17.18-2.46-22.09-.92l.31.3zm15.34 12.89c1.23 1.23 2.45 3.07 2.45 3.68 0 1.23-.61 1.23-7.97 1.23-4.91 0-7.67 0-7.67-.61 0-1.54 2.15-4.91 3.07-5.53s3.06-.92 4.9-.92c2.77 0 3.69.3 5.22 2.15zm52.76 1.84c2.15 2.15 3.38 7.36 2.46 11.35-2.46 10.43-12.89 9.2-13.8-1.53-.62-4.91 0-6.75 2.14-9.51 2.45-3.07 6.13-3.07 9.2-.3zm107.68 13.8c0 4.91-3.07 8.29-7.36 8.29-3.69 0-5.53-.92-5.53-3.38 0-2.76 1.54-3.68 7.06-5.21 6.14-1.54 5.83-1.54 5.83.3zM113.65 40.5v23.93h17.18V51.23l-.61-13.2 4.3 13.2 4.29 13.19h9.5l3.08-10.43 4.29-12.88c.61-2.15.61-.62.61 10.43l-.3 12.88h16.87V16.87h-21.78l-2.45 8.28c-1.72 5.13-3.46 10.24-5.22 15.34l-4.3-11.96-3.37-11.35H124.7l-11.05-.3v23.61zm61.36 0v23.93h17.18v-8.59c.01-5.95-.4-11.9-1.23-17.8l4.3 13.2 4.29 13.19h9.2l3.68-11.35 3.99-13.2v24.55h16.87V16.87h-21.47l-2.76 8.28c-4.6 15.04-5.22 16.26-5.52 15.04l-4-12.58-3.06-10.74h-21.47V40.5zm274.86 0v23.93h19.02v-17.8h12.58v17.8h19.32V16.87h-19.02v15.65H468.9V16.87h-19.02V40.5zm52.15-16.26v7.67h14.73v32.21h19.02v-32.2h15.64V16.86h-49.08v7.67l-.3-.3zm51.54 0v7.67h9.81v32.52l18.4-.3c19.95 0 22.1-.62 26.08-4.3a15.03 15.03 0 0 0 3.07-15.95c-3.07-7.06-8.9-10.13-21.17-10.13h-7.97V16.87h-28.23v7.67-.3zm38.96 22.1a4.69 4.69 0 0 1 1.22 3.06c0 2.45-2.45 3.68-7.67 3.68h-4.3V45.1h4.61c3.38 0 5.22.31 6.14 1.23z"></path></svg>
