<svg style="fill: #d09959;" xmlns="http://www.w3.org/2000/svg" xmlns:xlink="http://www.w3.org/1999/xlink" class="SvgSymbol-root SvgSymbol-meduzaLogo" width="544" height="115" viewBox="0 0 544 115"><path d="M59.1008614,49.65632 L59.1008614,106.01472 L84.9480411,114.24 L84.9480411,49.65632 L101.574882,49.65632 L101.574882,106.01472 L127.270909,114.24 L144.048902,91.392 L127.422062,91.392 L127.422062,35.7952 L101.726035,26.80832 L84.9480411,46.60992 L84.9480411,35.7952 L59.2520145,26.80832 L42.4740206,46.60992 L42.4740206,35.7952 L16.7779939,26.80832 L0,49.65632 L16.6268408,49.65632 L16.6268408,106.01472 L42.4740206,114.24 L42.4740206,49.65632 L59.1008614,49.65632 L59.1008614,49.65632 Z M336.61795,91.392 L336.61795,35.0336 L310.770769,26.80832 L310.770769,105.25312 L336.466796,114.24 L353.24479,94.4384 L353.24479,105.25312 L378.940817,114.24 L395.71881,91.392 L379.091969,91.392 L379.091969,35.0336 L353.24479,26.80832 L353.24479,91.392 L336.61795,91.392 L336.61795,91.392 Z M527.373159,38.08 L502.130592,26.80832 L472.202278,41.1264 L502.130592,52.39808 L461.016949,72.352 L461.016949,104.94848 L486.86413,114.24 L502.130592,94.28608 L502.130592,105.25312 L527.977771,114.24 L544,91.23968 L527.373159,91.23968 L527.373159,38.08 L527.373159,38.08 Z M177.453737,114.24 L207.079744,102.35904 L177.453737,91.23968 L177.453737,75.24608 L216.300083,56.3584 L194.231731,26.80832 L151.606557,47.37152 L151.606557,103.12064 L177.453737,114.24 L177.453737,114.24 Z M455.424284,89.56416 L423.984441,79.968 L453.459295,42.19264 L416.577937,26.80832 L397.230341,51.48416 L428.821339,61.23264 L398.741873,98.85568 L436.076687,114.24 L455.424284,89.56416 L455.424284,89.56416 Z M486.86413,91.392 L486.86413,68.84864 L502.130592,61.53728 L502.130592,91.392 L486.86413,91.392 L486.86413,91.392 Z M177.453737,41.58336 L190.452904,59.55712 L177.453737,65.80224 L177.453737,41.58336 L177.453737,41.58336 Z M222.95082,103.12064 L248.797999,114.24 L291.27202,97.18016 L291.27202,29.7024 L222.95082,0 L222.95082,26.30784 L265.424841,43.21536 L265.424841,97.33248 L248.797999,91.23968 L248.797999,43.71584 L222.95082,51.94112 L222.95082,103.12064 L222.95082,103.12064 Z"></path></svg>
