<svg id="Layer_1" xmlns="http://www.w3.org/2000/svg" viewBox="0 0 138 60.1" width="120" height="54"><path id="!" d="M95.1 27.9h19.7v-6h-13.3v-4.8h11.9V11h-11.9V6.4h20.6v21.5h6.4V6.4h9.5v-6H95.1zM26.6 27.9h19.7v-6H33v-4.8h11.9V11H33V6.4h13.3v-6H26.6zM47.4 27.9h6.4V13.4l10 14.5h8.3L61.5 13.1 72.1.4h-8.4l-9.9 12.9V.4h-6.4z"></path><path id="$" d="M122 32.3h6.5v27.6H122zM20 32.3v-4.4c2.4-.5 4.7-1.7 6.1-3.2l-3.5-4.9a9.97 9.97 0 0 1-6.8 2.5c-5.6 0-8.9-3.5-8.9-8.5 0-4.4 3.4-7.7 8.4-7.7 3.4 0 5.6 1.5 7 2.7L26.1 4C23.7 2 20 0 14.8 0 5.5 0 0 6.7 0 14.2 0 22.4 5.8 28 13.5 28.4v3.8C5.7 32.3 0 37.3 0 44.8s5.7 12.5 13.5 12.5v2.8H20v-2.8c8.1 0 13.6-5.1 13.6-12.5 0-7.8-5.7-12.5-13.6-12.5zm-6.5 19.1c-4.9 0-6.7-3.5-6.7-6.6 0-2.9 1.5-6.7 6.7-6.7v13.3zm6.5 0V38.1c5.2 0 6.7 3.8 6.7 6.7 0 3.2-1.9 6.6-6.7 6.6zM109.8 40.7c-.7 0-1.8 0-3 .2v-8.6h-6.1l-8.3 11.2-8.9-11.2H77v27.6h6.4V42.8l8 10h.9l8-9.9v17h1.1c1.8 0 4.3.1 6.5.1 9 0 13.1-3.7 13.1-9.9.1-5.7-3.6-9.4-11.2-9.4zm-.6 13.3c-.8 0-1.5 0-2.4-.1v-7c1-.1 1.8-.1 2.5-.1 3 0 4.9 1.1 4.9 3.5.1 2.5-1.7 3.7-5 3.7zM64 32.2c-1.8 0-5.2.1-7.3.1h-1.1L41 49.6V32.3h-6.4v27.6h5.6l14.6-17.3v17.3h6.4v-8c1.2.1 2 .1 2.9.1 8 0 12.1-4.1 12.1-9.9 0-5.4-3-9.9-12.2-9.9zm.3 13.7c-1.3 0-2 0-3.1-.2v-7.3c1.1 0 1.8-.1 2.7-.1 4 0 5.5 1.3 5.5 3.7 0 2.6-2 3.9-5.1 3.9zM79.2 19.8c1.2.1 1.8.2 2.9.2 8 0 12.2-4.1 12.2-9.9 0-6-3-9.8-12.3-9.8-3.2 0-7.5.1-9.1.1v27.5h6.4v-8.1zm0-13.4c.5 0 1.4-.1 2.4-.1 3.9 0 5.7 1.1 5.7 3.8 0 2.7-2 3.9-5.3 3.9-1.2 0-1.8 0-2.9-.2V6.4z"></path></svg>
