
<svg xmlns="http://www.w3.org/2000/svg" width="278" height="64" viewBox="1.789 -0.195 278.667 64.997"><path fill="#333" d="M63.331 64.448h-7.776V52.136H16.17v12.312H8.395l-2.16-20.664h9.936A229.41 229.41 0 0 0 18.727 33.2a300.484 300.484 0 0 0 2.16-10.908A267.19 267.19 0 0 0 22.579 11.6c.479-3.503.888-6.84 1.224-10.008h31.608v42.191h10.08l-2.16 20.665zM32.442 10.304a157.59 157.59 0 0 1-.972 7.992 232.133 232.133 0 0 1-1.404 8.46 190.442 190.442 0 0 1-1.8 8.604 311.859 311.859 0 0 1-2.088 8.424h19.224v-33.48h-12.96zM87.385.296c3.647 0 6.936.66 9.864 1.98 2.927 1.321 5.423 3.157 7.488 5.508 2.063 2.353 3.636 5.137 4.716 8.352 1.08 3.216 1.62 6.721 1.62 10.512 0 3.792-.54 7.321-1.62 10.584s-2.652 6.084-4.716 8.459c-2.064 2.377-4.561 4.237-7.488 5.58-2.929 1.344-6.217 2.016-9.864 2.016-3.648 0-6.924-.672-9.828-2.016-2.905-1.343-5.364-3.203-7.38-5.58-2.016-2.375-3.553-5.195-4.608-8.459-1.057-3.264-1.584-6.792-1.584-10.584s.527-7.296 1.584-10.512c1.055-3.215 2.592-6 4.608-8.352 2.016-2.351 4.475-4.187 7.38-5.508 2.904-1.32 6.18-1.98 9.828-1.98zm0 8.784c-2.16 0-4.057.444-5.688 1.332-1.632.889-3 2.113-4.104 3.672-1.104 1.56-1.933 3.409-2.484 5.544-.552 2.136-.828 4.453-.828 6.948 0 2.448.276 4.764.828 6.948.551 2.186 1.379 4.094 2.484 5.725 1.104 1.632 2.472 2.928 4.104 3.888 1.631.961 3.528 1.44 5.688 1.44s4.068-.479 5.724-1.44c1.656-.96 3.035-2.256 4.14-3.888 1.104-1.631 1.932-3.539 2.484-5.725.551-2.184.828-4.5.828-6.948 0-2.495-.277-4.812-.828-6.948-.552-2.135-1.38-3.984-2.484-5.544a11.918 11.918 0 0 0-4.14-3.672c-1.656-.888-3.564-1.332-5.724-1.332z"/><path fill="#CF3476" d="M144.192 1.592l-27.288 50.544H105.6l27.36-50.544h11.232zM166.037 1.592l-27.288 50.544h-11.305l27.36-50.544h11.233zM187.881 1.592l-27.288 50.544h-11.304l27.359-50.544h11.233z"/><path fill="#333" d="M232.541 64.448h-7.776V52.136h-39.384v12.312h-7.776l-2.159-20.664h9.936a229.41 229.41 0 0 0 2.556-10.584 298.35 298.35 0 0 0 2.16-10.908A265.397 265.397 0 0 0 191.79 11.6c.479-3.503.888-6.84 1.224-10.008h31.608v42.191h10.08l-2.161 20.665zm-30.888-54.144a157.631 157.631 0 0 1-.973 7.992 232.102 232.102 0 0 1-1.403 8.46 190.459 190.459 0 0 1-1.801 8.604 304.517 304.517 0 0 1-2.088 8.424h19.225v-33.48h-12.96zM246.185 21.32h15.264c5.376 0 9.443 1.344 12.204 4.032 2.76 2.689 4.141 6.553 4.141 11.592 0 5.089-1.404 8.893-4.212 11.412-2.809 2.521-6.853 3.78-12.133 3.78H236.32V1.592h9.864V21.32zm13.463 22.824c2.304 0 4.188-.612 5.652-1.836 1.464-1.224 2.196-3.035 2.196-5.437 0-2.447-.709-4.307-2.124-5.58-1.417-1.271-3.325-1.907-5.725-1.907h-13.464v14.76h13.465z"/></svg>
