<svg xmlns="http://www.w3.org/2000/svg" version="1.1" viewBox="0 0 345 64" fill="#000"><path pid="0" d="M17.345 49.697l-.039-22.375 2.53-.056c2.082 0 4.964 1.559 4.964 5.951v10.38c0 6.244-3.599 6.1-4.889 6.1h-2.566zm-13.668.01l-3.702-.028v2.406H22.02c9.533 0 16.464-4.844 16.464-14.557 0-6.728-6.787-11.043-12.505-10.937v-.711c6.626-.868 9.977-5.731 9.977-12.36 0-6.671-6.063-11.001-14.135-11.001L-.025 2.514v2.482l3.701-.039.001 44.75zM17.345 24.85V4.975h2.566c1.29 0 3.664-.39 3.664 5.824v7.866c0 4.956-1.938 6.186-3.739 6.186h-2.491zM44.66 4.947h-3.706V2.631H72v17.29h-1.198C69.944 2.237 58.231 4.994 58.231 4.994l.066 19.868 1.258.002c3.904 0 5.846-4.811 6.207-9.932h1.241v22.342h-1.241c-.536-4.98-2.245-9.928-6.207-9.928l-1.324.027.066 22.222c9.896.019 12.832-7.224 13.836-16.055h.993v18.544H40.954V49.66h3.706V4.947zm33.53-2.45v2.487h3.793c1.212 0 2.398 1.22 2.398 4.955v14.398c0 11.588-1.251 23.17-4.965 25.352h-3.725V63.34h1.242c0-6.936 2.641-11.17 8.688-11.17h13.655c6.283 0 9.931 3.245 9.931 11.17h1.241V49.689h-4.965V5.002l3.725-.018V2.497H78.19zm13.639 2.505V49.69h-8.086v-1.243c1.813-4.325 3.121-16.992 3.121-24.826V9.967c0-3.705 1.206-4.965 2.482-4.965h2.483zm19.846 22.411c0 12.23 5.266 25.983 16.759 25.983 11.502 0 16.771-13.598 16.771-25.825 0-12.235-5.269-26.333-16.771-26.333-11.494 0-16.759 13.944-16.759 26.175m13.613-20.005c0-3.023 1.497-4.007 3.146-4.007 1.651 0 3.131.984 3.131 4.007v39.683c0 3.023-1.48 4.131-3.131 4.131-1.649 0-3.146-1.107-3.146-4.131V7.408zm29.861 5.034h-1.265l-.024 32.195c0 3.503 2.044 5.048 4.926 5.074.12.129.038 2.453.038 2.453H146.46v-2.425c1.79 0 4.956-.319 4.956-5.047l.011-39.757h-3.716V2.637h17.106l3.973 16.819 3.971-16.819 18.356-.006v2.241h-3.782l.065 44.804h3.717v2.409h-21.109v-2.409h3.746V12.415h-.993l-7.695 39.691-1.134-.021-8.783-39.643zM260.54 19.85h-1.129c-.469-8.263-3.614-16.148-8.107-16.148-4.114 0-5.643 5.02-5.643 12.29V36.9c0 7.834.719 12.797 5.089 12.797 5.769 0 8.915-9.605 9.829-16.138h1.266c-.412 8.356-3.972 19.888-13.683 19.888-10.156 0-17.345-9.789-17.345-26.052 0-14.126 7.047-26.157 17.27-26.157 2.01 0 6.651.852 8.623 2.72L259.799 0h.741v19.85zm16.219-14.907c-6.293 0-9.851 7.51-9.851 14.928h-1.315V2.596l35.962.041v17.235h-1.313c0-6.796-3.039-14.932-9.893-14.932v44.775h5.007v2.37h-23.5v-2.37h4.903V4.943zm31.06-.016h-3.741v-2.29h19.878v2.29h-2.53V32.28h.993l5.262-24.772V4.907h-2.53v-2.27h19.876v2.29h-3.818v44.78h3.818v2.378H325.15v-2.378h2.53l-.078-28.544h-.995l-5.258 26.073v2.393l2.538.078v2.378h-19.786v-2.369h3.718V4.927zM193.6 27.413c0 12.23 5.264 25.983 16.758 25.983 11.503 0 16.771-13.598 16.771-25.825 0-12.235-5.268-26.333-16.771-26.333-11.495 0-16.758 13.944-16.758 26.175m13.611-20.005c0-3.023 1.498-4.007 3.146-4.007 1.652 0 3.133.984 3.133 4.007v39.683c0 3.023-1.48 4.131-3.133 4.131-1.648 0-3.146-1.107-3.146-4.131V7.408z"></path></svg>
